# Blender 4.1.1
# www.blender.org
mtllib knight.mtl
o 12936_Wooden_Chess_Knight_Side_B_V2_l3
v -0.772834 3.321844 0.780219
v -0.019550 0.634956 0.828477
v -0.388455 0.287480 1.408617
v -0.358872 0.496487 1.643255
v -0.826216 2.882304 0.647474
v -1.006576 2.947001 -0.245731
v -0.226524 1.635548 0.022395
v -0.892585 1.599548 -0.853010
v -0.628936 1.239766 1.772064
v 0.028885 0.384326 1.754703
v -0.721892 1.246201 1.154601
v -0.751858 3.368702 -1.397864
v -0.793429 -3.258903 -2.179549
v -0.638019 -5.160128 -2.267310
v -0.376522 -2.260297 -1.917238
v -1.803938 -3.214702 -0.887420
v -2.040426 -3.736267 -1.514163
v -0.487904 -4.364684 -2.524570
v -2.331688 -4.572571 -0.536849
v -1.394442 -4.736529 -2.377305
v -1.979821 -5.165341 0.040279
v -1.611443 -2.365869 -0.618503
v -1.713617 -3.342960 0.620924
v -1.592850 -4.716185 1.498547
v -0.639315 -2.043533 0.786689
v 0.068337 -3.262416 1.518929
v -0.666955 -4.364879 1.595513
v -1.408263 -2.071433 -0.476178
v -0.439119 -0.133712 -2.399282
v -0.311023 2.628965 -2.688619
v -0.395200 1.119658 -2.588892
v -0.223630 4.525634 0.065342
v -0.476631 -0.391552 1.099424
v -0.396471 1.108389 -1.570729
v -0.446645 -0.188670 -1.036403
v -0.514103 -1.500237 -1.453689
v -0.351714 3.268502 -1.545959
v -0.277279 3.943156 -0.027067
v -0.483038 -1.246035 -2.577712
v -1.195021 -0.201785 -0.170091
v -0.382703 2.001868 -1.887111
v -0.206499 4.494520 -1.450193
v 1.033180 2.857747 -0.082554
v 0.227629 2.342055 1.399674
v 0.650472 1.192238 1.749204
v 0.369296 0.375488 1.382046
v 0.828425 3.153710 0.713767
v 0.704484 1.197229 1.201640
v 0.335053 3.913649 -0.061562
v 0.931729 2.878135 -1.199463
v 0.243290 1.688392 0.017757
v 0.982037 -3.283039 -2.181610
v 1.096384 -2.512666 -1.447960
v 0.919577 -4.693561 -2.705346
v 2.017234 -4.401017 -1.000044
v 1.585712 -5.165251 -1.568967
v 2.025090 -3.463683 -0.612804
v 1.403206 -2.515901 0.131799
v 1.600743 -3.606195 0.987819
v 2.460176 -4.706779 -0.539707
v 1.685025 -5.117975 0.508088
v -0.214073 -2.368849 1.159689
v 1.035277 -4.631794 1.731607
v 0.030610 -5.158178 1.515339
v 0.393961 1.308071 -2.618412
v 1.020414 -2.066940 0.543220
v 0.491274 -0.451139 -1.019675
v 0.768878 -0.269154 0.935368
v 1.375188 -1.990944 -0.325525
v 0.405546 0.623397 -1.371869
v 0.481348 3.564318 -1.335387
v 0.371553 1.889560 -1.838610
v 0.490261 -1.269212 -2.573403
v 0.444420 -0.012087 -2.396145
v 0.305295 2.660189 -2.697311
v 0.193786 4.282662 0.471153
v 0.608216 -1.886432 -1.534755
v -0.061211 3.721412 0.707330
v 0.001012 3.841650 -2.278343
v 0.211319 4.684003 -0.955120
vn -0.9718 0.0199 0.2348
vn -0.6954 0.4915 0.5242
vn -0.9878 0.1553 0.0131
vn -0.9358 -0.3199 -0.1485
vn -0.6468 -0.0107 0.7625
vn -0.9384 -0.2773 0.2062
vn 0.0023 -0.6995 -0.7146
vn 0.6933 -0.7203 0.0224
vn -0.6337 -0.7651 0.1140
vn 0.1076 -0.6473 0.7546
vn -0.6147 0.5790 -0.5356
vn -0.9997 -0.0008 -0.0244
vn -0.3693 0.0320 -0.9288
vn 0.4577 0.1878 -0.8690
vn -0.8523 0.4993 -0.1560
vn -0.1552 0.1895 -0.9695
vn -0.8347 0.1723 -0.5231
vn -0.2701 0.5557 -0.7863
vn -0.9842 -0.1667 -0.0597
vn -0.6035 -0.7879 0.1225
vn -0.6902 -0.0073 -0.7236
vn -0.1403 -0.8521 -0.5043
vn -0.7902 0.2693 0.5505
vn -0.8903 0.4111 -0.1957
vn -0.9319 0.3628 0.0029
vn -0.5808 -0.0346 0.8133
vn -0.2520 0.2103 0.9446
vn -0.6661 0.0141 0.7457
vn -0.0118 -0.7931 0.6089
vn 0.0589 0.2219 0.9733
vn -0.9885 0.1482 0.0286
vn -0.9104 0.0172 -0.4134
vn -0.7543 0.0278 -0.6560
vn -0.9657 0.0019 -0.2597
vn -0.9813 -0.0436 -0.1876
vn -0.3956 0.1384 0.9079
vn -0.7643 0.3977 -0.5077
vn -0.9178 0.3814 0.1098
vn -0.7376 0.0375 -0.6741
vn -0.6979 -0.0615 -0.7136
vn -0.5914 -0.4353 -0.6788
vn 0.4741 0.8734 -0.1109
vn -0.5789 0.7425 0.3369
vn 0.4975 0.4894 0.7162
vn -0.6529 0.1514 -0.7421
vn 0.7555 0.4297 0.4946
vn 0.9114 0.3836 0.1491
vn -0.0062 0.6475 0.7621
vn 0.2752 0.3606 0.8912
vn 0.9588 -0.2732 -0.0776
vn 0.9539 -0.2744 0.1217
vn 0.9981 0.0379 -0.0477
vn 0.7377 -0.0459 0.6735
vn 0.9145 0.1762 -0.3642
vn 0.4933 -0.7936 -0.3561
vn 0.4023 0.0698 -0.9129
vn 0.8674 0.3389 -0.3643
vn 0.6941 0.4628 -0.5514
vn 0.6361 0.0985 -0.7653
vn 0.9845 0.1495 -0.0912
vn 0.6389 -0.0510 0.7676
vn 0.8577 0.3824 0.3436
vn 0.9983 0.0349 0.0462
vn 0.5432 -0.7693 0.3362
vn 0.9629 0.2558 -0.0860
vn 0.7624 0.1890 0.6189
vn 0.4243 -0.1288 0.8963
vn -0.1099 0.5305 0.8406
vn 0.6323 0.2275 0.7406
vn 0.9618 -0.0200 -0.2730
vn 0.9051 0.3375 -0.2587
vn 0.8547 0.0102 -0.5190
vn 0.4696 -0.2703 -0.8405
vn -0.0394 0.6373 -0.7696
vn 0.6960 -0.0491 -0.7163
vn 0.6214 0.1417 -0.7706
vn 0.7412 0.0223 -0.6710
vn -0.4819 -0.8762 -0.0008
vn 0.5584 -0.4011 -0.7262
vn -0.5553 0.7259 -0.4057
vt 0.724297 0.217001
vt 0.743324 0.228132
vt 0.690201 0.276265
vt 0.670525 0.101571
vt 0.701899 0.082523
vt 0.582535 0.179844
vt 0.623326 0.069876
vt 0.654009 0.037978
vt 0.653866 0.053160
vt 0.673970 0.036995
vt 0.688891 0.341872
vt 0.556444 0.282379
vt 0.238879 0.361784
vt 0.167675 0.391301
vt 0.237676 0.251114
vt 0.096527 0.356523
vt 0.133522 0.274827
vt 0.160329 0.348025
vt 0.089811 0.221146
vt 0.051357 0.186266
vt 0.066076 0.318913
vt 0.029424 0.341454
vt 0.170885 0.170546
vt 0.172685 0.257705
vt 0.269081 0.246324
vt 0.291181 0.139734
vt 0.139791 0.075893
vt 0.094654 0.116664
vt 0.068464 0.061522
vt 0.203484 0.070989
vt 0.392341 0.246741
vt 0.420679 0.335630
vt 0.310656 0.360170
vt 0.589607 0.384043
vt 0.518706 0.362081
vt 0.408620 0.146714
vt 0.684037 0.377870
vt 0.776119 0.300938
vt 0.434164 0.398599
vt 0.524004 0.411318
vt 0.358202 0.410744
vt 0.818600 0.319700
vt 0.800647 0.308847
vt 0.820800 0.313700
vt 0.626335 0.428461
vt 0.191257 0.628581
vt 0.153640 0.699483
vt 0.132681 0.630279
vt 0.187887 0.554451
vt 0.255954 0.499331
vt 0.328691 0.582201
vt 0.247501 0.661032
vt 0.297772 0.470817
vt 0.268993 0.462539
vt 0.228792 0.488305
vt 0.246034 0.452508
vt 0.266834 0.737023
vt 0.832606 0.791657
vt 0.769456 0.804535
vt 0.775477 0.742780
vt 0.888330 0.690402
vt 0.902017 0.771726
vt 0.864087 0.753875
vt 0.823870 0.659569
vt 0.700221 0.722548
vt 0.648989 0.757147
vt 0.647497 0.655983
vt 0.646676 0.574899
vt 0.680702 0.609655
vt 0.847052 0.628273
vt 0.870575 0.562219
vt 0.769047 0.645920
vt 0.762825 0.555590
vt 0.826398 0.501693
vt 0.657555 0.504414
vt 0.713869 0.487088
vt 0.855531 0.466673
vt 0.618009 0.505674
vt 0.396279 0.566076
vt 0.527510 0.525969
vt 0.512540 0.570429
vt 0.341898 0.788765
vt 0.229672 0.758426
vt 0.523143 0.738249
vt 0.438970 0.756156
vt 0.224398 0.822163
vt 0.150440 0.761766
vt 0.384080 0.820248
vt 0.295771 0.832129
vt 0.479778 0.807325
vt 0.335400 0.859050
vt 0.266050 0.856800
vt 0.605773 0.507472
vt 0.763903 0.154591
vt 0.794623 0.248087
vt 0.732320 0.074936
vt 0.704802 0.048120
vt 0.675971 0.054936
vt 0.057738 0.383033
vt 0.251022 0.110162
vt 0.109416 0.044603
vt 0.925615 0.905811
vt 0.890657 0.962806
vt 0.877206 0.855514
vt 0.607641 0.448371
vt 0.388223 0.418831
vt 0.601753 0.115180
vt 0.759262 0.384362
vt 0.716980 0.423720
vt 0.804595 0.351595
vt 0.824828 0.272409
vt 0.404300 0.437600
vt 0.458897 0.435694
vt 0.739450 0.424100
vt 0.336815 0.428335
vt 0.699182 0.787726
vt 0.830599 0.873761
vt 0.831125 0.942355
vt 0.783202 0.463555
vt 0.823955 0.442600
vt 0.565435 0.819711
vt 0.121048 0.684714
vt 0.454350 0.843150
vt 0.612437 0.822385
vt 0.675272 0.799622
vt 0.638201 0.805214
s 1
usemtl 12936_WoodenChessNightSideB
f 5/1/1 1/2/2 6/3/3
f 1/2/2 11/4/4 9/5/5
f 11/4/4 1/2/2 5/1/1
f 7/6/6 2/7/7 11/4/4
f 46/8/8 3/9/9 2/7/7
f 7/6/6 11/4/4 6/3/3
f 10/10/10 3/9/9 46/8/8
f 6/3/3 11/4/4 5/1/1
f 6/3/3 12/11/11 8/12/12
f 15/13/13 52/14/14 22/15/15
f 18/16/16 17/17/17 13/18/18
f 19/19/19 17/17/17 18/16/16
f 21/20/20 20/21/21 14/22/22
f 17/17/17 23/23/23 16/24/24
f 19/19/19 23/23/23 17/17/17
f 28/25/25 22/15/15 25/26/26
f 19/19/19 27/27/27 23/23/23
f 19/19/19 24/28/28 27/27/27
f 64/29/29 24/28/28 21/20/20
f 23/23/23 27/27/27 26/30/30
f 15/13/13 28/25/25 40/31/31
f 25/26/26 40/31/31 28/25/25
f 35/32/32 36/33/33 40/31/31
f 41/34/34 34/35/35 35/32/32
f 7/6/6 8/12/12 33/36/36
f 37/37/37 12/11/11 38/38/38
f 29/39/39 34/35/35 31/40/40
f 35/32/32 29/39/39 39/41/41
f 80/42/42 32/43/43 76/44/44
f 30/45/45 41/34/34 37/37/37
f 41/34/34 31/40/40 34/35/35
f 47/46/46 49/47/47 78/48/48
f 44/49/49 48/50/50 47/46/46
f 51/51/51 43/52/52 48/50/50
f 51/51/51 48/50/50 2/53/7
f 48/50/50 46/54/8 2/53/7
f 48/50/50 44/49/49 45/55/53
f 10/56/10 46/54/8 48/50/50
f 43/52/52 51/51/51 50/57/54
f 43/52/52 47/46/46 48/50/50
f 48/50/50 45/55/53 10/56/10
f 18/58/16 13/59/18 52/60/14
f 56/61/55 14/62/22 54/63/56
f 52/60/14 55/64/57 18/58/16
f 55/64/57 54/63/56 18/58/16
f 53/65/58 77/66/59 69/67/60
f 66/68/61 58/69/62 69/67/60
f 56/61/55 60/70/63 61/71/64
f 57/72/65 58/69/62 59/73/66
f 55/64/57 59/73/66 63/74/67
f 63/74/67 61/71/64 60/70/63
f 66/68/61 62/75/68 58/69/62
f 59/73/66 58/69/62 62/75/68
f 26/76/30 59/73/66 62/75/68
f 61/71/64 63/74/67 64/77/29
f 66/68/61 25/78/26 62/75/68
f 7/79/6 33/80/36 68/81/69
f 50/57/54 72/82/70 71/83/71
f 77/66/59 67/84/72 69/67/60
f 69/67/60 50/57/54 51/51/51
f 67/84/72 70/85/73 72/82/70
f 51/51/51 68/81/69 69/67/60
f 7/79/6 68/81/69 51/51/51
f 79/86/74 80/87/42 71/83/71
f 65/88/75 75/89/76 72/82/70
f 67/84/72 74/90/77 70/85/73
f 74/90/77 65/88/75 70/85/73
f 75/89/76 65/88/75 31/91/40
f 30/92/45 79/86/74 75/89/76
f 69/67/60 68/81/69 66/68/61
f 71/83/71 72/82/70 75/89/76
f 70/85/73 65/88/75 72/82/70
f 43/52/52 50/57/54 71/83/71
f 33/80/36 25/93/26 66/68/61
f 6/3/3 1/2/2 38/38/38
f 1/2/2 44/94/49 78/95/48
f 1/2/2 9/5/5 44/94/49
f 45/96/53 9/5/5 10/97/10
f 11/4/4 2/7/7 3/9/9
f 45/96/53 44/94/49 9/5/5
f 3/9/9 10/10/10 11/4/4
f 10/10/10 4/98/78 11/4/4
f 78/95/48 38/38/38 1/2/2
f 38/38/38 12/11/11 6/3/3
f 6/3/3 8/12/12 7/6/6
f 4/98/78 9/5/5 11/4/4
f 4/98/78 10/97/10 9/5/5
f 14/22/22 20/21/21 54/99/56
f 13/18/18 22/15/15 52/14/14
f 18/16/16 54/99/56 20/21/21
f 16/24/24 22/15/15 13/18/18
f 16/24/24 13/18/18 17/17/17
f 20/21/21 19/19/19 18/16/16
f 28/25/25 15/13/13 22/15/15
f 21/20/20 19/19/19 20/21/21
f 21/20/20 24/28/28 19/19/19
f 22/15/15 16/24/24 23/23/23
f 62/100/68 22/15/15 23/23/23
f 22/15/15 62/100/68 25/26/26
f 26/30/30 62/100/68 23/23/23
f 24/28/28 63/101/67 27/27/27
f 21/102/20 14/103/22 64/104/29
f 75/105/76 31/40/40 30/45/45
f 39/41/41 29/39/39 73/106/79
f 8/12/12 40/31/31 33/36/36
f 8/12/12 41/34/34 40/31/31
f 15/13/13 40/31/31 36/33/33
f 40/31/31 41/34/34 35/32/32
f 37/37/37 41/34/34 12/11/11
f 41/34/34 8/12/12 12/11/11
f 51/107/51 2/7/7 7/6/6
f 32/43/43 42/108/80 38/38/38
f 36/33/33 35/32/32 39/41/41
f 42/108/80 79/109/74 37/37/37
f 31/40/40 41/34/34 30/45/45
f 37/37/37 79/109/74 30/45/45
f 32/43/43 80/110/42 42/108/80
f 32/43/43 78/95/48 76/111/44
f 74/112/77 73/106/79 29/39/39
f 74/113/77 29/39/39 31/40/40
f 80/114/42 79/109/74 42/108/80
f 33/36/36 40/31/31 25/26/26
f 42/108/80 37/37/37 38/38/38
f 29/39/39 35/32/32 34/35/35
f 38/38/38 78/95/48 32/43/43
f 39/41/41 73/115/79 36/33/33
f 43/52/52 49/47/47 47/46/46
f 78/48/48 44/49/49 47/46/46
f 15/116/13 53/65/58 52/60/14
f 15/116/13 77/66/59 53/65/58
f 52/60/14 53/65/58 57/72/65
f 52/60/14 57/72/65 55/64/57
f 60/70/63 54/63/56 55/64/57
f 56/61/55 54/63/56 60/70/63
f 58/69/62 53/65/58 69/67/60
f 53/65/58 58/69/62 57/72/65
f 57/72/65 59/73/66 55/64/57
f 55/64/57 63/74/67 60/70/63
f 61/117/64 64/104/29 56/118/55
f 59/73/66 26/76/30 27/119/27
f 63/74/67 59/73/66 27/119/27
f 64/77/29 63/74/67 24/120/28
f 64/104/29 14/103/22 56/118/55
f 50/57/54 69/67/60 67/84/72
f 72/82/70 50/57/54 67/84/72
f 49/47/47 43/52/52 71/83/71
f 73/121/79 67/84/72 77/66/59
f 67/84/72 73/121/79 74/90/77
f 49/47/47 80/87/42 76/122/44
f 75/89/76 79/86/74 71/83/71
f 65/88/75 74/90/77 31/123/40
f 73/121/79 77/66/59 36/124/33
f 77/66/59 15/125/13 36/126/33
f 80/87/42 49/47/47 71/83/71
f 49/47/47 76/122/44 78/48/48
f 33/80/36 66/68/61 68/81/69
