# Blender 4.1.1
# www.blender.org
mtllib bishop.mtl
o 12395_Wooden_Chess_Bishop_Side_B_V2_l3
v 0.266573 1.324941 -1.325408
v -0.536952 -2.064145 -1.065712
v -0.872157 1.385118 -0.919226
v 0.149699 -2.292542 -1.494205
v -1.036673 -3.384882 -1.634243
v -0.119349 0.998697 -1.331632
v -0.161324 -2.620575 -1.477388
v -0.860675 1.458078 -0.520977
v -1.081444 -2.695767 -0.960876
v -1.294922 -4.804328 -2.011784
v -1.003691 -3.926795 -2.055979
v -1.573403 -5.251097 -1.050936
v -1.364096 -4.486793 -1.546370
v -1.062977 0.998963 -0.755466
v -1.122836 -2.275885 -0.948434
v -1.836804 -3.375620 -0.533498
v -1.247014 -2.415908 -1.109115
v -2.087746 -3.916514 -0.766200
v -1.481832 0.655814 0.238816
v -1.135211 -2.021522 -0.126756
v -1.387943 -2.685670 0.303641
v -2.383431 -4.823440 -0.557570
v -1.841342 -5.221977 0.415337
v -1.417035 -2.291315 0.467567
v -1.958907 -4.505609 0.533342
v -1.336372 1.029382 -0.022590
v -0.767348 -2.016401 0.793663
v -2.114830 -3.874102 0.716603
v -0.898012 1.345875 0.988240
v -1.624815 -3.364039 1.018339
v -1.749322 -4.797599 1.652385
v -0.720111 1.487559 0.518175
v -1.077264 -5.249843 1.499105
v -0.672657 0.999580 1.082661
v -1.029450 -2.497600 1.117643
v -0.629657 -2.967428 1.397543
v -0.918856 -4.511265 1.758603
v -0.077496 -4.788405 2.354931
v -0.201184 1.490358 0.860820
v -0.227345 -2.292481 1.455981
v -0.189865 -3.376760 1.891918
v -0.649240 -3.797009 2.060310
v 0.043834 -5.168433 1.872847
v 0.378069 1.011303 1.223727
v -0.002508 -2.026667 1.098815
v 1.069989 1.009593 0.773614
v 0.287173 -2.597000 1.439645
v 0.980985 -3.324995 1.561814
v 0.657153 -3.901392 2.115829
v 0.951340 -5.249650 1.615757
v 0.571723 1.493921 0.681715
v 0.642240 -2.262426 1.258350
v 1.373131 -2.565943 0.642812
v 0.792399 -4.492034 1.856541
v 1.348837 -2.286311 0.566233
v 1.578912 -4.809142 1.804418
v 1.878291 -5.222360 0.267697
v 1.439000 0.665603 0.566441
v 1.394803 -2.997048 0.703362
v 1.776672 -3.384660 0.644490
v 1.937932 -4.488004 0.433700
v 2.131372 -3.946424 0.824772
v 1.682087 -4.516357 -1.163263
v 2.416358 -4.776506 -0.075327
v 1.263720 0.997043 -0.270704
v 1.060677 -2.330510 -1.075332
v 1.362173 -2.692094 -0.476222
v 1.811704 -3.383938 -0.657286
v 1.294389 1.346554 -0.430562
v 1.379896 -2.264124 -0.385849
v 0.763399 -2.697976 -1.211626
v 1.338524 -5.235383 -1.390684
v 1.769892 -3.856789 -1.385358
v 1.389118 0.972537 -0.524276
v 1.286262 0.661467 -0.842501
v 1.792357 -4.802203 -1.585095
v 0.356981 -4.508912 -1.980966
v 0.243712 -4.788234 -2.428500
v 0.579748 -2.081343 -1.072611
v 0.492478 -3.892413 -2.172155
v 0.620791 -3.371629 -1.860469
v -0.279246 -5.202205 -1.907867
v 0.796954 1.363032 1.068730
v -0.314513 5.120642 -0.542707
v -0.659546 4.810184 -0.235675
v -0.327608 4.489611 -0.390368
v -0.449345 5.210856 0.062422
v -0.999713 1.808518 0.375359
v -0.506882 4.826596 0.452927
v -0.390918 4.496473 0.270262
v -0.530637 4.322593 0.497929
v -0.101179 5.107317 0.590926
v 0.111507 4.522513 0.475689
v -0.066880 1.850203 0.971299
v 0.438196 4.497478 0.140582
v 0.557967 4.951320 0.431314
v 0.923774 1.493659 -0.012691
v 0.564038 5.139744 -0.420913
v 0.335963 4.491530 -0.377686
v 0.426453 1.505893 -0.853733
v 0.649790 4.826757 -0.304510
v -0.112974 4.782690 -0.693334
v 0.853601 1.842086 -0.579574
v -0.735939 0.638913 -0.106262
v -0.747888 -0.390941 0.255042
v -0.362661 0.631079 0.616654
v 0.716274 -0.856353 0.482421
v 0.526163 0.636902 -0.489224
v 0.010362 -0.609199 -0.856546
v 1.151906 -2.043086 -0.181178
v -1.089058 0.812988 -1.194672
v 0.462918 0.924441 -1.504017
v -1.488687 0.914033 -0.354640
v -1.165889 0.902175 1.054015
v 0.393342 0.934961 1.480963
v -0.062817 0.652867 1.552296
v -0.851505 4.080421 -0.278297
v 0.848586 3.786323 -0.721430
v -0.224441 4.063856 -0.955567
v -0.462486 4.075345 0.749352
v 0.342428 4.133860 0.783142
v 0.874079 4.046816 0.358900
v -1.112612 3.253062 0.462577
v -0.330009 3.351356 -1.186655
v -1.044317 2.804449 -0.673912
v -1.192014 3.238096 -0.019812
v -0.373145 2.768726 1.154645
v 0.586360 2.807388 1.083112
v 1.184347 3.197351 0.358642
v 0.313604 2.489308 -1.151379
v -0.127853 1.845155 -1.006417
v 0.954218 1.928791 -0.383446
v -0.562043 1.921854 0.716763
v -0.815733 1.851525 -0.561189
v -0.950449 1.929405 0.062800
v 0.866995 1.867574 0.477955
v 1.175493 3.252400 -0.017515
v 0.127783 0.661828 -1.550491
v 0.087972 0.647586 0.728169
v 0.748814 0.650346 0.174457
v -0.167082 0.636435 -0.776237
vn -0.0713 -0.8986 -0.4330
vn 0.2996 -0.8996 -0.3177
vn -0.3478 -0.9025 -0.2539
vn -0.5528 0.5952 -0.5833
vn -0.9170 0.2747 -0.2890
vn 0.3511 0.5904 -0.7267
vn 0.2394 0.3758 -0.8952
vn 0.1019 0.3930 -0.9139
vn -0.7567 0.1308 -0.6406
vn -0.4776 0.8077 -0.3458
vn 0.2635 0.5325 -0.8043
vn -0.4043 0.0516 -0.9132
vn -0.4232 0.5844 -0.6923
vn -0.6855 0.2676 -0.6771
vn 0.1988 0.3445 -0.9175
vn -0.3869 0.4888 -0.7819
vn 0.1113 0.0381 -0.9931
vn -0.5117 -0.0130 -0.8591
vn -0.2297 0.0761 -0.9703
vn -0.7581 -0.0187 -0.6518
vn -0.9783 0.0413 -0.2029
vn -0.8072 0.5497 -0.2152
vn -0.9393 -0.0140 -0.3429
vn -0.6301 0.6256 -0.4600
vn -0.7209 0.6886 0.0776
vn -0.8849 0.3761 0.2749
vn -0.9609 0.2273 0.1579
vn -0.9569 0.1311 0.2590
vn -0.4928 -0.8600 0.1325
vn -0.6384 0.4323 0.6368
vn -0.9269 0.1300 0.3520
vn -0.7239 0.4867 0.4890
vn -0.6866 0.5119 0.5163
vn -0.7090 0.1664 0.6853
vn -0.3160 0.5539 0.7703
vn -0.6892 0.2095 0.6936
vn -0.2045 0.2872 0.9358
vn -0.4344 0.3489 0.8304
vn -0.3409 0.1593 0.9265
vn -0.7365 0.0503 0.6746
vn -0.1830 0.4637 0.8669
vn -0.6119 0.4551 0.6469
vn -0.0572 0.6381 0.7678
vn 0.3393 0.3606 0.8689
vn -0.3604 0.4270 0.8293
vn -0.0395 0.0499 0.9980
vn -0.0579 0.5735 0.8172
vn 0.1751 0.1811 0.9678
vn 0.3807 0.2602 0.8874
vn 0.0217 -0.8676 0.4968
vn -0.2158 -0.9076 0.3600
vn 0.0881 0.7600 0.6439
vn 0.4869 0.5119 0.7077
vn 0.4784 0.5257 0.7034
vn 0.2879 0.0819 0.9541
vn 0.7783 0.3861 0.4952
vn 0.6912 0.0288 0.7221
vn 0.1886 -0.8874 0.4207
vn 0.9290 0.0159 0.3697
vn 0.7726 0.4673 0.4297
vn 0.8977 0.1217 0.4234
vn 0.7797 0.5994 -0.1808
vn 0.8150 0.5775 0.0477
vn 0.9444 0.2536 0.2094
vn 0.4443 -0.8910 0.0933
vn 0.9973 0.0571 -0.0470
vn 0.7801 0.5910 0.2054
vn 0.9179 0.2856 -0.2755
vn 0.7691 0.5576 0.3123
vn 0.7886 0.6048 -0.1111
vn 0.8784 0.4312 -0.2063
vn 0.7954 0.3594 -0.4880
vn 0.9405 0.2240 -0.2554
vn 0.4000 0.6221 -0.6731
vn 0.8537 0.4516 -0.2594
vn 0.7904 0.1500 -0.5939
vn 0.2170 0.0756 -0.9732
vn 0.3415 0.4504 -0.8249
vn -0.1718 0.4297 -0.8865
vn 0.5444 0.2411 -0.8034
vn 0.6889 0.3147 -0.6530
vn 0.7409 0.0311 -0.6709
vn -0.1449 -0.3473 -0.9265
vn -0.0947 -0.1628 -0.9821
vn -0.6673 0.1770 -0.7235
vn -0.9608 -0.0781 -0.2661
vn -0.8119 -0.1163 -0.5721
vn -0.9065 0.1599 0.3907
vn -0.9971 -0.0701 0.0305
vn -0.7301 -0.0378 0.6823
vn -0.5206 0.8469 0.1085
vn -0.8477 0.2349 0.4757
vn -0.0618 0.5698 0.8194
vn -0.6110 -0.3080 0.7292
vn -0.0366 -0.2735 0.9612
vn 0.1684 -0.0889 0.9817
vn 0.7322 0.2740 0.6235
vn 0.6171 0.6100 -0.4971
vn 0.9512 0.1587 0.2648
vn 0.9094 -0.2006 -0.3644
vn 0.8374 -0.2445 0.4888
vn 0.4565 0.6386 0.6196
vn 0.6520 0.1555 -0.7421
vn 0.8090 -0.1917 -0.5557
vn -0.5701 -0.8144 -0.1082
vn 0.0630 0.1834 -0.9810
vn -0.1712 -0.8414 -0.5126
vn -0.8710 0.4783 -0.1127
vn -0.8992 0.1505 0.4108
vn -0.3187 -0.7897 0.5242
vn 0.7731 0.2243 0.5934
vn 0.0807 -0.8479 0.5240
vn 0.4879 0.2801 0.8267
vn 0.4756 -0.7862 -0.3946
vn 0.5209 -0.8463 0.1114
vn -0.6447 -0.1023 -0.7575
vn -0.0645 -0.5275 -0.8471
vn -0.1195 -0.4619 0.8789
vn 0.8620 -0.3844 0.3303
vn 0.6980 -0.5163 -0.4963
vn -0.8352 -0.5266 0.1586
vn -0.9307 0.2530 -0.2642
vn -0.8185 0.5217 -0.2406
vn 0.7048 0.3595 -0.6116
vn 0.6967 0.2201 0.6827
vn -0.1910 0.5213 -0.8317
vn -0.9601 0.2536 0.1176
vn -0.4893 0.3051 0.8170
vn -0.8350 -0.0494 -0.5481
vn -0.4231 0.9049 0.0470
vn -0.8225 0.4908 0.2874
vn -0.3397 -0.0194 0.9403
vn 0.4587 -0.0132 0.8885
vn 0.3012 0.9470 0.1118
vn 0.3414 -0.1250 -0.9316
vn -0.2627 0.1735 -0.9492
vn 0.9630 0.2632 0.0579
vn 0.8626 0.4552 0.2209
vn 0.8964 -0.3832 -0.2228
vn 0.7576 0.5941 0.2703
vn -0.3940 0.6389 -0.6608
vt 0.964239 0.872223
vt 0.924317 0.949990
vt 0.931699 0.803562
vt 0.581005 0.646117
vt 0.605470 0.645386
vt 0.611786 0.736646
vt 0.576894 0.722082
vt 0.688525 0.333271
vt 0.714698 0.419557
vt 0.698575 0.423133
vt 0.764889 0.283475
vt 0.821800 0.361632
vt 0.788920 0.381106
vt 0.862098 0.387554
vt 0.842246 0.281679
vt 0.668682 0.392648
vt 0.872407 0.283795
vt 0.889616 0.365012
vt 0.718888 0.348482
vt 0.738249 0.419918
vt 0.914477 0.306883
vt 0.935110 0.408564
vt 0.903524 0.461729
vt 0.795478 0.463529
vt 0.834940 0.448414
vt 0.104032 0.205274
vt 0.117031 0.165835
vt 0.124134 0.206457
vt 0.700417 0.521733
vt 0.733528 0.513016
vt 0.876626 0.532763
vt 0.951971 0.519400
vt 0.145855 0.112030
vt 0.837067 0.538637
vt 0.176882 0.140808
vt 0.149125 0.204812
vt 0.786987 0.563662
vt 0.108643 0.106603
vt 0.134378 0.090870
vt 0.707496 0.570183
vt 0.683925 0.575004
vt 0.878960 0.611246
vt 0.831800 0.615600
vt 0.916192 0.587155
vt 0.193060 0.092130
vt 0.330805 0.562510
vt 0.352245 0.515178
vt 0.371716 0.530131
vt 0.403183 0.624801
vt 0.378290 0.664730
vt 0.348060 0.643298
vt 0.130772 0.047392
vt 0.369980 0.598945
vt 0.409553 0.704729
vt 0.436999 0.727957
vt 0.364009 0.743236
vt 0.307664 0.530206
vt 0.378419 0.560955
vt 0.302014 0.587567
vt 0.306333 0.725704
vt 0.364193 0.779875
vt 0.425117 0.770960
vt 0.168400 0.054200
vt 0.172805 0.059863
vt 0.155663 0.051599
vt 0.275455 0.652902
vt 0.309840 0.688739
vt 0.682770 0.062261
vt 0.707519 0.061692
vt 0.710490 0.111379
vt 0.274357 0.761133
vt 0.303627 0.794900
vt 0.205560 0.707293
vt 0.216312 0.629213
vt 0.209796 0.593112
vt 0.715350 0.183400
vt 0.674940 0.175228
vt 0.680935 0.099875
vt 0.192478 0.741660
vt 0.189506 0.813293
vt 0.162759 0.774401
vt 0.731458 0.172595
vt 0.134839 0.597394
vt 0.206826 0.572388
vt 0.165197 0.535071
vt 0.143220 0.564278
vt 0.082223 0.746431
vt 0.075967 0.829161
vt 0.691896 0.218089
vt 0.751684 0.177901
vt 0.100073 0.524244
vt 0.119516 0.661700
vt 0.079367 0.700712
vt 0.054001 0.654759
vt 0.581850 0.769141
vt 0.544024 0.775179
vt 0.829263 0.224999
vt 0.804182 0.283421
vt 0.783929 0.238062
vt 0.539874 0.730117
vt 0.557116 0.698718
vt 0.707140 0.281813
vt 0.675436 0.281847
vt 0.859939 0.215150
vt 0.900678 0.228451
vt 0.652691 0.314688
vt 0.645051 0.693284
vt 0.197495 0.941191
vt 0.221286 0.952993
vt 0.202576 0.961495
vt 0.639382 0.634970
vt 0.192978 0.166551
vt 0.175005 0.221673
vt 0.203770 0.186877
vt 0.489225 0.813665
vt 0.519754 0.823883
vt 0.492348 0.842036
vt 0.468213 0.822312
vt 0.064953 0.903463
vt 0.094924 0.899255
vt 0.079304 0.921490
vt 0.222604 0.130667
vt 0.223611 0.094541
vt 0.121012 0.902968
vt 0.114844 0.942823
vt 0.083671 0.952057
vt 0.364950 0.823730
vt 0.389896 0.826279
vt 0.373136 0.860569
vt 0.424366 0.822982
vt 0.421384 0.841435
vt 0.395137 0.863142
vt 0.632850 0.147043
vt 0.649409 0.113669
vt 0.421343 0.864127
vt 0.663988 0.220876
vt 0.845071 0.968069
vt 0.780788 0.912799
vt 0.451483 0.463806
vt 0.559586 0.373107
vt 0.452386 0.395303
vt 0.668135 0.475799
vt 0.522058 0.499049
vt 0.449576 0.511584
vt 0.325646 0.388627
vt 0.307943 0.324868
vt 0.232293 0.440189
vt 0.272782 0.320140
vt 0.269148 0.570797
vt 0.154938 0.317944
vt 0.205861 0.320970
vt 0.527592 0.648264
vt 0.530040 0.713585
vt 0.110358 0.065914
vt 0.739144 0.122592
vt 0.721427 0.047898
vt 0.770031 0.184588
vt 0.523041 0.769240
vt 0.087238 0.143736
vt 0.082982 0.176390
vt 0.066489 0.193309
vt 0.334721 0.278961
vt 0.386816 0.265250
vt 0.372306 0.292662
vt 0.529962 0.280040
vt 0.469598 0.288346
vt 0.478915 0.245116
vt 0.800682 0.681918
vt 0.840622 0.713223
vt 0.789773 0.741549
vt 0.840322 0.671495
vt 0.285577 0.235605
vt 0.383364 0.243150
vt 0.241163 0.253924
vt 0.368406 0.170763
vt 0.296512 0.204494
vt 0.290722 0.129181
vt 0.546850 0.134056
vt 0.472215 0.167835
vt 0.523513 0.107724
vt 0.698213 0.719702
vt 0.746543 0.677152
vt 0.550456 0.228930
vt 0.543272 0.200700
vt 0.635653 0.212084
vt 0.709863 0.763626
vt 0.713574 0.627615
vt 0.581600 0.088300
vt 0.613276 0.092239
vt 0.427761 0.253350
vt 0.459535 0.271804
vt 0.408075 0.254713
vt 0.408212 0.961581
vt 0.312852 0.902157
vt 0.364661 0.904095
vt 0.767925 0.063355
vt 0.777641 0.097450
vt 0.476250 0.694438
vt 0.510165 0.640227
vt 0.462870 0.654839
vt 0.052353 0.094557
vt 0.554747 0.632906
vt 0.533130 0.619430
vt 0.650249 0.546827
vt 0.741848 0.590165
vt 0.815552 0.613664
vt 0.965490 0.600038
vt 0.792765 0.814203
vt 0.772002 0.854660
vt 0.634878 0.073353
vt 0.204516 0.663543
vt 0.093785 0.560149
vt 0.067100 0.785330
vt 0.082118 0.594859
vt 0.176410 0.946113
vt 0.176225 0.911335
vt 0.224507 0.908568
vt 0.496080 0.864618
vt 0.511052 0.857630
vt 0.467391 0.848804
vt 0.052418 0.934640
vt 0.194285 0.898361
vt 0.640660 0.757409
vt 0.154464 0.928960
vt 0.855345 0.781769
vt 0.112192 0.478188
vt 0.447731 0.348879
vt 0.769011 0.204828
vt 0.807310 0.640249
vt 0.372074 0.143059
vt 0.472194 0.046835
vt 0.476902 0.073420
vt 0.324433 0.047120
vt 0.260880 0.961605
vt 0.319891 0.073510
vt 0.539723 0.896133
vt 0.589502 0.968361
vt 0.432485 0.968466
vt 0.472283 0.899051
vt 0.803668 0.142103
vt 0.035759 0.138985
vt 0.066497 0.043611
vt 0.479481 0.750279
s 1
usemtl 12935_WoodenChessBishopSideB
f 82/1/1 72/2/2 12/3/3
f 3/4/4 8/5/5 100/6/6
f 100/6/6 1/7/7 3/4/4
f 4/8/8 17/9/9 15/10/10
f 81/11/11 11/12/12 5/13/13
f 13/14/14 11/12/12 77/15/15
f 15/10/10 2/16/16 4/8/8
f 78/17/17 10/18/18 13/14/14
f 17/9/9 7/19/19 9/20/20
f 82/21/1 12/22/3 10/18/18
f 22/23/21 10/18/18 12/22/3
f 16/24/22 9/20/20 5/13/13
f 5/13/13 18/25/23 16/24/22
f 13/14/14 18/25/23 11/12/12
f 14/26/24 26/27/25 3/28/4
f 17/9/9 24/29/26 15/10/10
f 17/9/9 9/20/20 21/30/27
f 16/24/22 21/30/27 9/20/20
f 13/14/14 22/23/21 25/31/28
f 23/32/29 22/23/21 12/22/3
f 3/28/4 26/27/25 29/33/30
f 17/9/9 21/30/27 24/29/26
f 16/24/22 18/25/23 28/34/31
f 32/35/32 8/36/5 29/33/30
f 30/37/33 21/30/27 16/24/22
f 16/24/22 28/34/31 30/37/33
f 26/27/25 114/38/34 34/39/35
f 24/29/26 35/40/36 40/41/37
f 28/34/31 37/42/38 42/43/39
f 37/42/38 25/31/28 31/44/40
f 39/45/41 32/35/32 29/33/30
f 40/46/37 27/47/42 24/48/26
f 30/49/33 42/50/39 41/51/43
f 114/38/34 115/52/44 34/39/35
f 30/49/33 41/51/43 36/53/45
f 37/54/38 31/55/40 38/56/46
f 27/47/42 40/46/37 45/57/47
f 35/58/36 47/59/48 40/46/37
f 35/58/36 36/53/45 47/59/48
f 37/54/38 38/56/46 54/60/49
f 43/61/50 38/56/46 33/62/51
f 33/62/51 38/56/46 31/55/40
f 29/33/30 44/63/52 83/64/53
f 34/39/35 115/52/44 44/65/52
f 47/59/48 36/53/45 48/66/54
f 41/51/43 48/66/54 36/53/45
f 41/51/43 42/50/39 49/67/55
f 44/68/52 115/69/44 46/70/56
f 41/51/43 49/67/55 48/66/54
f 56/71/57 43/61/50 50/72/58
f 48/66/54 49/67/55 62/73/59
f 59/74/60 53/75/61 47/59/48
f 69/76/62 97/77/63 83/78/53
f 61/79/64 62/73/59 54/60/49
f 56/71/57 61/79/64 54/60/49
f 57/80/65 56/71/57 50/72/58
f 57/80/65 64/81/66 56/71/57
f 46/70/56 65/82/67 69/76/62
f 53/75/61 67/83/68 55/84/69
f 53/75/61 59/74/60 67/83/68
f 110/85/70 55/84/69 70/86/71
f 61/79/64 63/87/72 62/73/59
f 64/81/66 63/87/72 61/79/64
f 72/88/2 64/81/66 57/80/65
f 97/77/63 69/76/62 100/89/6
f 69/76/62 65/82/67 74/90/73
f 110/85/70 70/86/71 79/91/74
f 68/92/75 73/93/76 81/94/11
f 69/95/62 1/7/7 100/6/6
f 69/95/62 74/96/73 1/7/7
f 63/97/72 80/98/77 73/99/76
f 63/97/72 77/15/15 80/98/77
f 112/100/78 6/101/79 74/96/73
f 71/102/80 4/8/8 66/103/81
f 76/104/82 77/15/15 63/97/72
f 78/17/17 72/105/2 82/21/1
f 79/106/74 4/8/8 2/16/16
f 7/19/19 71/102/80 81/11/11
f 29/33/30 34/39/35 44/65/52
f 83/78/53 44/68/52 46/70/56
f 131/107/83 100/6/6 8/5/5
f 102/108/84 86/109/85 85/110/86
f 8/5/5 134/111/87 131/107/83
f 8/36/5 88/112/88 134/113/87
f 135/114/89 134/113/87 88/112/88
f 89/115/90 87/116/91 85/117/86
f 85/117/86 90/118/92 89/115/90
f 87/119/91 89/120/90 92/121/93
f 133/122/94 88/112/88 94/123/95
f 89/120/90 90/124/92 93/125/96
f 93/125/96 92/121/93 89/120/90
f 92/121/93 93/125/96 96/126/97
f 92/127/93 96/128/97 98/129/98
f 93/130/96 95/131/99 96/128/97
f 101/132/100 96/128/97 95/131/99
f 97/77/63 136/133/101 51/134/102
f 98/129/98 96/128/97 101/132/100
f 101/132/100 95/131/99 99/135/103
f 100/89/6 103/136/104 97/77/63
f 57/137/65 50/138/58 72/2/2
f 2/16/16 104/139/105 109/140/106
f 104/139/105 141/141/107 109/140/106
f 104/139/105 2/16/16 20/142/108
f 104/139/105 105/143/109 106/144/110
f 105/145/109 27/47/42 106/146/110
f 106/146/110 45/57/47 107/147/111
f 106/146/110 107/147/111 139/148/112
f 52/149/113 107/147/111 45/57/47
f 107/147/111 52/149/113 110/85/70
f 107/147/111 110/85/70 108/150/114
f 108/150/114 140/151/115 107/147/111
f 111/152/116 112/100/78 138/153/117
f 114/38/34 116/154/118 115/52/44
f 58/155/119 115/69/44 116/156/118
f 75/157/120 74/90/73 58/155/119
f 138/153/117 112/100/78 75/158/120
f 19/159/121 113/160/122 111/161/116
f 116/154/118 114/38/34 19/159/121
f 117/162/123 90/163/92 86/164/85
f 118/165/124 99/166/103 122/167/125
f 119/168/126 99/169/103 118/170/124
f 86/171/85 99/169/103 119/168/126
f 117/162/123 126/172/127 91/173/128
f 125/174/129 126/172/127 117/162/123
f 120/175/130 123/176/131 127/177/132
f 128/178/133 121/179/134 127/180/132
f 118/170/124 130/181/135 124/182/136
f 137/183/137 129/184/138 132/185/139
f 118/170/124 132/186/139 130/181/135
f 123/176/131 135/114/89 133/122/94
f 123/176/131 133/122/94 127/177/132
f 129/184/138 136/133/101 132/185/139
f 134/111/87 125/187/129 131/107/83
f 125/174/129 134/113/87 135/114/89
f 133/122/94 94/123/95 127/177/132
f 127/188/132 94/189/95 128/178/133
f 128/178/133 94/189/95 136/133/101
f 91/173/128 122/167/125 93/190/96
f 122/167/125 95/191/99 93/190/96
f 90/192/92 91/173/128 93/190/96
f 129/193/138 120/194/130 121/195/134
f 58/155/119 139/196/112 140/197/115
f 141/198/107 19/199/121 138/153/117
f 19/199/121 141/198/107 104/200/105
f 106/201/110 116/154/118 19/159/121
f 9/20/20 7/19/19 81/11/11
f 5/13/13 9/20/20 81/11/11
f 81/11/11 80/98/77 11/12/12
f 77/15/15 78/17/17 13/14/14
f 3/4/4 1/7/7 6/101/79
f 6/101/79 112/100/78 111/152/116
f 7/19/19 17/9/9 4/8/8
f 82/21/1 10/18/18 78/17/17
f 138/153/117 19/199/121 111/152/116
f 6/101/79 14/202/24 3/4/4
f 14/202/24 6/101/79 111/152/116
f 113/203/122 14/202/24 111/152/116
f 20/142/108 2/16/16 15/10/10
f 11/12/12 18/25/23 5/13/13
f 13/14/14 10/18/18 22/23/21
f 15/10/10 24/29/26 20/142/108
f 13/14/14 25/31/28 18/25/23
f 3/28/4 29/33/30 8/36/5
f 26/27/25 14/26/24 113/160/122
f 18/25/23 25/31/28 28/34/31
f 113/160/122 114/38/34 26/27/25
f 31/44/40 25/31/28 22/23/21
f 23/32/29 31/44/40 22/23/21
f 27/204/42 20/142/108 24/29/26
f 35/40/36 24/29/26 21/30/27
f 26/27/25 34/39/35 29/33/30
f 35/40/36 21/30/27 36/205/45
f 36/205/45 21/30/27 30/37/33
f 42/206/39 30/37/33 28/34/31
f 28/34/31 25/31/28 37/42/38
f 33/207/51 31/44/40 23/32/29
f 83/64/53 39/45/41 29/33/30
f 33/208/51 50/138/58 43/209/50
f 37/54/38 49/67/55 42/50/39
f 49/67/55 37/54/38 54/60/49
f 83/78/53 51/134/102 39/210/41
f 45/57/47 40/46/37 52/149/113
f 52/149/113 40/46/37 47/59/48
f 54/60/49 38/56/46 56/71/57
f 43/61/50 56/71/57 38/56/46
f 52/149/113 47/59/48 53/75/61
f 59/74/60 47/59/48 48/66/54
f 54/60/49 62/73/59 49/67/55
f 52/149/113 53/75/61 55/84/69
f 60/211/140 48/66/54 62/73/59
f 83/78/53 97/77/63 51/134/102
f 48/66/54 60/211/140 59/74/60
f 110/85/70 52/149/113 55/84/69
f 56/71/57 64/81/66 61/79/64
f 65/82/67 46/70/56 74/90/73
f 67/83/68 60/211/140 68/92/75
f 67/83/68 59/74/60 60/211/140
f 68/92/75 60/211/140 62/73/59
f 67/83/68 70/86/71 55/84/69
f 67/83/68 66/212/81 70/86/71
f 62/73/59 73/93/76 68/92/75
f 73/93/76 62/73/59 63/87/72
f 76/213/82 64/81/66 72/88/2
f 68/92/75 71/214/80 67/83/68
f 64/81/66 76/213/82 63/87/72
f 70/86/71 66/212/81 79/91/74
f 66/212/81 67/83/68 71/214/80
f 68/92/75 81/94/11 71/214/80
f 72/105/2 78/17/17 76/104/82
f 1/7/7 74/96/73 6/101/79
f 66/103/81 4/8/8 79/106/74
f 4/8/8 71/102/80 7/19/19
f 81/11/11 73/99/76 80/98/77
f 76/104/82 78/17/17 77/15/15
f 80/98/77 77/15/15 11/12/12
f 72/2/2 50/138/58 12/3/3
f 12/3/3 50/138/58 33/208/51
f 69/76/62 83/78/53 46/70/56
f 84/215/141 98/216/98 102/108/84
f 102/108/84 99/217/103 86/109/85
f 102/218/84 85/117/86 84/219/141
f 84/219/141 85/117/86 87/116/91
f 86/220/85 90/118/92 85/117/86
f 32/35/32 88/112/88 8/36/5
f 88/112/88 133/122/94 135/114/89
f 32/35/32 94/123/95 88/112/88
f 32/35/32 39/45/41 94/123/95
f 39/210/41 51/134/102 94/189/95
f 98/221/98 87/119/91 92/121/93
f 51/134/102 136/133/101 94/189/95
f 97/77/63 103/136/104 136/133/101
f 136/133/101 103/136/104 132/185/139
f 102/108/84 101/222/100 99/217/103
f 98/216/98 101/222/100 102/108/84
f 103/223/104 100/6/6 131/107/83
f 98/216/98 84/215/141 87/224/91
f 12/3/3 33/208/51 23/225/29
f 20/142/108 105/143/109 104/139/105
f 27/204/42 105/143/109 20/142/108
f 27/47/42 45/57/47 106/146/110
f 109/226/106 110/85/70 79/91/74
f 108/150/114 110/85/70 109/226/106
f 141/141/107 108/227/114 109/140/106
f 79/106/74 2/16/16 109/140/106
f 113/160/122 19/159/121 114/38/34
f 75/157/120 112/228/78 74/90/73
f 58/155/119 46/70/56 115/69/44
f 58/155/119 74/90/73 46/70/56
f 119/168/126 117/229/123 86/171/85
f 91/173/128 90/163/92 117/162/123
f 95/191/99 122/167/125 99/166/103
f 119/168/126 124/182/136 125/187/129
f 119/168/126 125/187/129 117/229/123
f 127/177/132 121/230/134 120/175/130
f 129/184/138 121/179/134 128/178/133
f 137/183/137 118/165/124 122/167/125
f 118/170/124 124/182/136 119/168/126
f 118/165/124 137/183/137 132/185/139
f 130/181/135 131/107/83 124/182/136
f 124/182/136 131/107/83 125/187/129
f 126/172/127 125/174/129 135/114/89
f 123/176/131 126/172/127 135/114/89
f 136/133/101 129/184/138 128/178/133
f 130/181/135 132/186/139 103/223/104
f 130/181/135 103/223/104 131/107/83
f 129/231/138 137/232/137 123/233/131
f 123/234/131 120/194/130 129/193/138
f 123/233/131 137/232/137 126/235/127
f 91/236/128 126/237/127 137/238/137
f 137/238/137 122/239/125 91/236/128
f 116/156/118 139/196/112 58/155/119
f 75/157/120 140/197/115 108/240/114
f 75/157/120 58/155/119 140/197/115
f 106/201/110 19/159/121 104/241/105
f 139/242/112 116/154/118 106/201/110
f 108/243/114 138/153/117 75/158/120
f 138/153/117 108/243/114 141/198/107
f 140/151/115 139/148/112 107/147/111
