# Blender 4.1.1
# www.blender.org
mtllib pawn.mtl
o 12937_Wooden_Chess_Pawn_Side_B_V2_L3
v -1.184858 -3.082533 -1.599509
v -0.722621 -2.621260 -2.206239
v -1.015222 -2.343485 -1.736030
v -0.076696 -1.735393 -2.176453
v -0.278501 -1.222524 -1.840194
v 0.190670 -0.541615 -1.531298
v -0.258261 -0.330849 -1.430541
v -0.766509 1.828258 -1.195047
v 0.345871 1.824908 -1.364622
v -0.282109 2.473897 -0.595207
v 0.037590 3.104725 -1.211511
v -0.195702 4.599054 -1.082668
v 0.004783 5.106498 -0.338086
v -1.128916 -1.804966 -1.855340
v -1.219725 -1.226494 -1.402194
v -0.570155 -0.751420 -1.452971
v -1.142761 -0.347746 -0.901276
v -0.416332 -0.184695 -1.192805
v -0.928543 3.107632 -0.707642
v -0.447066 3.774156 -1.317926
v -1.189944 4.184624 -0.454825
v -1.620540 -2.635290 -1.665070
v -1.862878 -2.335068 -0.605388
v -1.851175 -1.221654 -0.354253
v -1.050955 -0.558685 -1.170442
v -1.079341 -0.196977 -0.593010
v -0.479708 0.849440 -0.653440
v -0.668741 1.799432 -0.292592
v -1.908433 -3.083813 -0.484750
v -2.336361 -2.615763 -0.387524
v -1.794717 -2.339969 0.951452
v -1.956380 -1.792240 -1.013765
v -0.844837 0.680369 -0.063679
v -1.390169 1.828701 -0.217275
v -1.155331 3.076732 0.094756
v -0.864501 4.844493 -0.079494
v -2.073561 -1.844329 0.704136
v -1.498212 -0.732392 -0.378366
v -1.281150 -0.569902 0.887524
v -1.469137 -0.387300 0.065268
v -1.237693 -0.199862 0.244469
v -1.735921 -3.080580 1.022394
v -1.531175 -2.624023 1.754396
v -2.065578 -2.638874 1.062850
v -1.617773 -1.219471 0.947921
v -1.396584 -0.776882 0.600000
v -0.721528 -0.203087 1.022460
v -0.704225 1.799537 0.293070
v -1.169838 3.889225 0.633047
v -0.416111 -3.085945 1.935253
v -0.383280 -2.337212 1.935689
v -0.498609 -1.211670 1.821687
v -0.263071 -0.371322 1.422462
v -1.082035 -0.328453 0.981069
v -0.641062 0.689318 0.556322
v -1.106043 1.825809 0.886268
v -1.187866 2.114218 0.861955
v -0.613667 3.055461 0.961383
v -0.296231 3.718247 1.340544
v -0.012897 5.036822 0.566104
v -0.460526 -2.615069 2.289075
v -1.039475 -1.820562 1.924177
v -0.693004 -0.724154 1.394413
v 0.735990 -0.556579 1.427812
v -0.186755 1.796679 0.724817
v 0.015148 1.825579 1.417656
v -0.211887 4.785520 0.996467
v 0.749869 -3.080758 1.812318
v 1.083963 -2.634854 2.098479
v 0.847612 -2.337568 1.772196
v 0.838685 -1.220977 1.685018
v 0.646745 -0.346822 1.311072
v 0.147239 -0.206001 1.263539
v 0.732954 -0.182433 1.005033
v 0.172223 0.767581 0.833587
v 0.526577 2.595281 0.543351
v 0.315755 3.025468 1.102929
v 0.410269 -1.897909 2.124596
v 0.417929 -0.774250 1.479280
v 0.382837 2.125763 1.392440
v 0.655541 4.112983 1.130856
v 1.792126 -3.083405 0.905512
v 1.731294 -2.338310 0.953086
v 1.688892 -1.761329 1.399549
v 1.621351 -1.224537 0.906183
v 1.226308 -0.775063 0.886225
v 1.515530 -0.727908 0.311527
v 1.327932 -0.362909 0.577658
v 1.234272 -0.204196 0.301419
v 0.748982 0.761665 0.334870
v 0.572771 1.798420 0.525559
v 1.403606 2.124291 0.292764
v 0.605321 2.473171 0.262030
v 1.061485 3.532485 0.733981
v 2.205075 -2.631157 0.813801
v 1.936559 -2.336468 -0.379493
v 2.200449 -1.867010 -0.134075
v 1.428642 -0.364036 -0.245620
v 1.262325 4.254751 -0.035581
v 1.862530 -3.085686 -0.689427
v 1.863489 -1.225978 -0.141437
v 1.460268 -0.571756 -0.590650
v 1.205451 1.826017 -0.733324
v 0.629343 2.463099 -0.218517
v 1.111670 3.191005 -0.580215
v 1.027547 4.703085 0.218175
v 1.031698 -3.078387 -1.677268
v 2.229545 -2.637309 -0.724101
v 0.949872 -2.342594 -1.799695
v 1.593637 -1.225319 -0.967866
v 1.363388 -0.772472 -0.665428
v 0.826805 -0.340065 -1.198804
v 1.076275 -0.198482 -0.649228
v 0.755145 0.766353 -0.386007
v 0.682259 1.793207 -0.386706
v 0.690689 4.486604 -0.995301
v 1.497755 -2.635138 -1.776064
v 1.332708 -1.854868 -1.741217
v 0.847922 -1.219910 -1.666720
v 0.875542 -0.711962 -1.280453
v 0.138556 0.762663 -0.812250
v 1.030102 2.117687 -0.981691
v 0.051764 -3.084429 -1.963159
v 0.440852 -2.627332 -2.297220
v 0.427272 -0.199434 -1.179090
v -1.190674 2.126038 -0.837627
v 0.026973 2.119705 -1.401792
v -0.686962 2.472346 -0.020202
v -0.295981 2.469483 0.591452
v 0.249443 2.471975 -0.614693
v 1.277478 1.825284 0.703885
v -0.205958 1.798064 -0.747894
v 0.265488 2.426415 0.665341
vn -0.2995 -0.8645 -0.4035
vn -0.2593 0.1256 -0.9576
vn -0.0042 -0.8743 -0.4854
vn 0.1517 0.1433 -0.9780
vn -0.4743 0.2936 -0.8300
vn 0.4372 0.3077 -0.8451
vn -0.0134 0.0423 -0.9990
vn -0.5148 0.0905 -0.8525
vn -0.2923 0.4876 -0.8227
vn -0.6725 -0.0169 -0.7399
vn 0.1345 0.0166 -0.9908
vn -0.3055 0.6048 -0.7355
vn -0.5943 0.2305 -0.7705
vn 0.1963 0.2827 -0.9389
vn -0.1300 -0.7990 -0.5870
vn -0.0336 0.4418 -0.8965
vn -0.4127 -0.5113 -0.7538
vn -0.7760 0.3686 -0.5119
vn 0.0913 -0.3891 -0.9166
vn 0.3853 0.2836 -0.8781
vn -0.4466 0.2720 -0.8524
vn -0.1023 0.5702 -0.8151
vn -0.5611 0.5534 -0.6155
vn -0.1751 0.4542 -0.8735
vn -0.6646 0.5947 -0.4524
vn -0.7043 0.6229 -0.3404
vn -0.3281 0.0231 -0.9444
vn -0.7356 -0.3909 -0.5533
vn -0.8993 0.2642 -0.3484
vn -0.1929 0.5888 -0.7850
vn -0.7509 0.1335 -0.6468
vn -0.4705 -0.8728 -0.1299
vn -0.9815 0.1236 -0.1459
vn -0.9054 0.3167 -0.2827
vn -0.8989 0.0413 -0.4361
vn -0.8630 0.4892 -0.1258
vn -0.8739 0.4275 -0.2315
vn -0.9589 0.2836 0.0082
vn -0.8371 0.3280 0.4378
vn -0.9686 0.0014 0.2485
vn -0.8929 0.4495 0.0266
vn -0.7753 0.6093 0.1663
vn -0.9535 0.2885 -0.0873
vn -0.8908 -0.4504 -0.0598
vn -0.7382 0.4211 0.5270
vn -0.9122 -0.3988 0.0943
vn -0.7343 0.5107 0.4472
vn -0.8924 0.3368 0.3003
vn -0.8112 0.0605 0.5817
vn -0.5585 0.5580 0.6138
vn -0.6959 0.2780 0.6622
vn -0.5888 -0.7674 0.2538
vn -0.5418 -0.6664 0.5122
vn -0.6594 0.7507 -0.0396
vn -0.8768 0.1214 0.4653
vn -0.9168 0.0624 0.3946
vn -0.6065 0.1186 0.7862
vn -0.5025 0.0070 0.8646
vn -0.4084 0.6417 0.6492
vn -0.4306 0.2849 0.8564
vn -0.5194 -0.4613 0.7193
vn 0.0547 0.9333 0.3549
vn 0.0332 0.9675 -0.2506
vn -0.1795 0.3259 0.9282
vn -0.2038 0.4915 0.8467
vn -0.4134 0.4620 0.7847
vn -0.1414 0.4543 0.8795
vn 0.1705 0.2736 0.9466
vn -0.1643 -0.7605 0.6282
vn -0.2341 -0.0097 0.9722
vn -0.1817 0.6642 0.7251
vn 0.1773 -0.0230 0.9839
vn 0.1460 0.3984 0.9055
vn 0.4848 0.0793 0.8710
vn 0.3285 0.6679 0.6679
vn 0.0546 0.5728 0.8178
vn 0.2664 -0.4680 0.8426
vn -0.1004 -0.8636 0.4940
vn 0.4609 0.0847 0.8834
vn -0.1676 0.1227 0.9782
vn 0.1621 -0.8743 0.4575
vn 0.4129 0.3174 0.8537
vn 0.3762 0.5048 0.7769
vn 0.5857 0.5343 0.6095
vn 0.5751 -0.5624 0.5941
vn 0.5045 0.2574 0.8241
vn 0.4689 -0.8679 -0.1641
vn 0.7657 0.0827 0.6379
vn 0.7647 0.5075 0.3972
vn 0.6654 0.5551 0.4990
vn 0.8907 0.2817 0.3568
vn -0.1147 -0.5157 0.8490
vn 0.7301 -0.4692 0.4968
vn 0.2953 0.3776 0.8776
vn 0.8484 -0.1854 0.4958
vn 0.4640 -0.8491 0.2524
vn 0.9454 0.1042 0.3087
vn 0.8897 0.4169 0.1860
vn 0.7679 0.6195 0.1627
vn 0.7642 0.4919 0.4172
vn 0.4502 -0.8092 0.3775
vn 0.4975 -0.8241 -0.2708
vn 0.8822 0.2892 0.3715
vn 0.9085 0.3240 -0.2641
vn 0.8343 0.2888 0.4696
vn 0.9973 -0.0154 -0.0722
vn 0.8531 0.5185 -0.0582
vn 0.8064 0.5829 -0.0993
vn 0.8745 0.2630 -0.4077
vn 0.9715 0.2309 -0.0544
vn 0.8449 -0.3215 -0.4275
vn 0.7096 0.6789 0.1884
vn 0.8715 0.2447 -0.4249
vn 0.7687 0.4502 -0.4543
vn 0.7298 0.5384 -0.4213
vn 0.2619 -0.8686 -0.4206
vn 0.6921 0.1030 -0.7144
vn 0.9448 0.1077 -0.3095
vn 0.6745 -0.0195 -0.7380
vn 0.9169 0.1641 -0.3639
vn 0.4750 0.5803 -0.6616
vn 0.9041 0.3097 -0.2943
vn 0.5325 0.4428 -0.7214
vn 0.3483 0.5107 -0.7860
vn 0.5009 0.3742 -0.7804
vn 0.2528 0.5859 -0.7699
vn 0.7524 -0.5596 -0.3476
vn 0.2327 -0.5760 -0.7836
vn 0.6394 0.4284 -0.6384
vn 0.1758 0.7932 0.5830
vn 0.9147 0.3857 0.1202
vn -0.6096 -0.7410 -0.2816
vn -0.4481 -0.8585 0.2495
vt 0.044809 0.450750
vt 0.053649 0.409743
vt 0.095856 0.455534
vt 0.129424 0.420628
vt 0.068773 0.377325
vt 0.175100 0.391585
vt 0.105978 0.339882
vt 0.051797 0.340926
vt 0.108588 0.240856
vt 0.107875 0.218452
vt 0.157188 0.242971
vt 0.132756 0.191062
vt 0.153154 0.115822
vt 0.189692 0.123390
vt 0.178532 0.030669
vt 0.097386 0.705639
vt 0.073094 0.674102
vt 0.096217 0.667632
vt 0.231268 0.707047
vt 0.162322 0.738438
vt 0.160268 0.690580
vt 0.515172 0.237073
vt 0.518294 0.181861
vt 0.554261 0.222240
vt 0.556218 0.308112
vt 0.580886 0.277898
vt 0.602100 0.289605
vt 0.576394 0.322307
vt 0.624878 0.304531
vt 0.613557 0.406301
vt 0.615566 0.653892
vt 0.620725 0.710741
vt 0.578848 0.712208
vt 0.554312 0.634944
vt 0.597920 0.593595
vt 0.533782 0.102592
vt 0.612304 0.054324
vt 0.628354 0.090318
vt 0.512444 0.068062
vt 0.515575 0.141010
vt 0.611278 0.123481
vt 0.594232 0.166263
vt 0.638748 0.204127
vt 0.639725 0.247248
vt 0.597216 0.779936
vt 0.530641 0.780780
vt 0.723305 0.117621
vt 0.700978 0.150837
vt 0.673828 0.269986
vt 0.692108 0.293616
vt 0.676294 0.378769
vt 0.569456 0.845347
vt 0.530658 0.860404
vt 0.498551 0.842610
vt 0.515014 0.716171
vt 0.726346 0.197549
vt 0.713534 0.238733
vt 0.733221 0.253847
vt 0.746848 0.274714
vt 0.736951 0.382423
vt 0.712062 0.480018
vt 0.488177 0.864252
vt 0.531631 0.580449
vt 0.491816 0.649190
vt 0.720721 0.083376
vt 0.776060 0.087674
vt 0.801151 0.158655
vt 0.763272 0.296216
vt 0.168740 0.906619
vt 0.223851 0.959104
vt 0.167101 0.945347
vt 0.231514 0.916711
vt 0.295415 0.961044
vt 0.373690 0.948185
vt 0.388882 0.897309
vt 0.421833 0.908222
vt 0.849826 0.127687
vt 0.821780 0.206607
vt 0.789730 0.249748
vt 0.814185 0.283844
vt 0.809236 0.393240
vt 0.773184 0.481302
vt 0.286391 0.890482
vt 0.349485 0.893317
vt 0.897650 0.173579
vt 0.867301 0.266132
vt 0.861512 0.280454
vt 0.867288 0.299967
vt 0.834546 0.313768
vt 0.237551 0.851808
vt 0.858390 0.057445
vt 0.925975 0.104232
vt 0.852381 0.096331
vt 0.936902 0.065028
vt 0.920243 0.139476
vt 0.895153 0.227598
vt 0.844881 0.343820
vt 0.188425 0.846718
vt 0.301060 0.839071
vt 0.744886 0.692534
vt 0.961025 0.815723
vt 0.725223 0.917840
vt 0.485668 0.324124
vt 0.479860 0.365434
vt 0.414996 0.340486
vt 0.381283 0.302323
vt 0.451127 0.279464
vt 0.428774 0.240412
vt 0.382934 0.256094
vt 0.422912 0.230400
vt 0.414174 0.207027
vt 0.390684 0.189252
vt 0.413505 0.185229
vt 0.323545 0.146873
vt 0.370629 0.094625
vt 0.374630 0.518016
vt 0.366546 0.572475
vt 0.350870 0.521069
vt 0.182602 0.560969
vt 0.205002 0.515816
vt 0.267161 0.536539
vt 0.142061 0.525319
vt 0.404510 0.451586
vt 0.381031 0.418084
vt 0.483055 0.400907
vt 0.332423 0.261815
vt 0.331633 0.210856
vt 0.351865 0.232376
vt 0.327825 0.029257
vt 0.338830 0.031556
vt 0.258432 0.032191
vt 0.285658 0.581440
vt 0.276042 0.463177
vt 0.300522 0.394072
vt 0.398461 0.382246
vt 0.316259 0.358829
vt 0.307915 0.314970
vt 0.291215 0.243053
vt 0.256672 0.124677
vt 0.135554 0.617582
vt 0.188278 0.639098
vt 0.098576 0.585258
vt 0.260816 0.273023
vt 0.248197 0.317235
vt 0.249690 0.215794
vt 0.678565 0.837379
vt 0.179869 0.461755
vt 0.205724 0.427189
vt 0.284381 0.426857
vt 0.202296 0.359116
vt 0.270840 0.259972
vt 0.209557 0.236244
vt 0.243708 0.788397
vt 0.162485 0.779071
vt 0.328395 0.763001
vt 0.329476 0.804665
vt 0.383901 0.779495
vt 0.181290 0.309860
vt 0.203510 0.262630
vt 0.186647 0.210004
vt 0.077314 0.788523
vt 0.080393 0.725953
vt 0.097840 0.774364
vt 0.130645 0.215256
vt 0.301905 0.689410
vt 0.339534 0.692486
vt 0.855798 0.678395
vt 0.938440 0.732737
vt 0.101580 0.859568
vt 0.163971 0.856917
vt 0.291094 0.543430
vt 0.349292 0.596838
vt 0.550142 0.901591
vt 0.597229 0.867177
vt 0.510829 0.904732
vt 0.083925 0.866663
vt 0.042009 0.935190
vt 0.044009 0.891653
vt 0.032533 0.770098
vt 0.103937 0.941926
vt 0.285423 0.622552
vt 0.347904 0.648897
vt 0.064648 0.310187
vt 0.104192 0.291193
vt 0.483792 0.113191
vt 0.549391 0.276937
vt 0.557969 0.537060
vt 0.660269 0.481734
vt 0.621918 0.482592
vt 0.732802 0.049382
vt 0.084756 0.940466
vt 0.811124 0.482924
vt 0.494755 0.438614
vt 0.093269 0.528037
vt 0.062932 0.562360
vt 0.042755 0.591896
vt 0.378741 0.640533
vt 0.396809 0.740453
vt 0.353179 0.709551
vt 0.684247 0.762724
vt 0.811863 0.955092
vt 0.910933 0.917679
vt 0.036267 0.709918
vt 0.585004 0.909009
vt 0.038619 0.861955
vt 0.409853 0.553965
vt 0.037191 0.788989
s 1
usemtl 12937_WoodenChessPawnSideB
f 1/1/1 2/2/2 123/3/3
f 124/4/4 3/5/5 109/6/6
f 4/7/7 3/5/5 14/8/8
f 16/9/9 25/10/10 6/11/11
f 18/12/12 27/13/13 121/14/14
f 27/13/13 132/15/15 121/14/14
f 127/16/16 8/17/17 126/18/18
f 11/19/19 130/20/20 10/21/21
f 5/22/22 14/23/8 15/24/23
f 7/25/24 25/26/10 17/27/25
f 17/27/25 18/28/12 7/25/24
f 26/29/26 27/30/13 18/28/12
f 20/31/27 11/32/19 19/33/28
f 21/34/29 12/35/30 20/31/27
f 22/36/31 29/37/32 30/38/33
f 29/37/32 22/36/31 1/39/1
f 3/40/5 30/38/33 23/41/34
f 15/24/23 32/42/35 24/43/36
f 15/24/23 24/43/36 38/44/37
f 38/44/37 17/27/25 25/26/10
f 19/33/28 10/45/21 128/46/38
f 23/41/34 30/38/33 31/47/39
f 32/42/35 31/47/39 37/48/40
f 40/49/41 26/29/26 17/27/25
f 41/50/42 33/51/43 26/29/26
f 126/52/18 34/53/44 57/54/45
f 128/46/38 35/55/46 19/33/28
f 19/33/28 35/55/46 21/34/29
f 37/48/40 45/56/47 24/43/36
f 45/56/47 38/44/37 24/43/36
f 38/44/37 45/56/47 46/57/48
f 38/44/37 46/57/48 40/49/41
f 40/49/41 46/57/48 39/58/49
f 41/50/42 40/49/41 54/59/50
f 55/60/51 48/61/52 33/51/43
f 34/53/44 56/62/53 57/54/45
f 36/63/54 21/34/29 49/64/55
f 31/47/39 44/65/56 43/66/57
f 37/48/40 31/47/39 62/67/58
f 54/59/50 47/68/59 41/50/42
f 41/50/42 47/68/59 55/60/51
f 129/69/60 35/70/46 128/71/38
f 58/72/61 49/73/55 35/70/46
f 36/74/54 60/75/62 13/76/63
f 43/66/57 51/77/64 31/47/39
f 45/56/47 62/67/58 52/78/65
f 63/79/66 53/80/67 39/58/49
f 47/68/59 54/59/50 53/80/67
f 75/81/68 55/60/51 47/68/59
f 65/82/69 55/60/51 75/81/68
f 48/61/52 55/60/51 65/82/69
f 49/73/55 58/72/61 59/83/70
f 67/84/71 49/73/55 59/83/70
f 62/67/58 51/77/64 78/85/72
f 52/78/65 62/67/58 78/85/72
f 52/78/65 79/86/73 63/79/66
f 64/87/74 63/79/66 79/86/73
f 64/87/74 53/80/67 63/79/66
f 72/88/75 53/80/67 64/87/74
f 53/80/67 73/89/76 47/68/59
f 77/90/77 59/83/70 58/72/61
f 50/91/78 69/92/79 61/93/80
f 68/94/81 69/92/79 50/91/78
f 51/77/64 69/92/79 70/95/82
f 78/85/72 51/77/64 70/95/82
f 52/78/65 78/85/72 71/96/83
f 74/97/84 75/81/68 73/89/76
f 77/90/77 129/69/60 76/98/85
f 77/90/77 81/99/86 59/83/70
f 59/83/70 81/99/86 67/84/71
f 100/100/87 50/101/78 1/102/1
f 78/103/72 70/104/82 84/105/88
f 85/106/89 71/107/83 84/105/88
f 79/108/73 86/109/90 64/110/74
f 72/111/75 74/112/84 73/113/76
f 90/114/91 75/115/68 74/112/84
f 66/116/92 131/117/93 80/118/94
f 94/119/95 77/120/77 76/121/85
f 77/120/77 94/119/95 81/122/86
f 82/123/96 95/124/97 69/125/79
f 86/109/90 87/126/98 64/110/74
f 72/111/75 89/127/99 74/112/84
f 88/128/100 89/127/99 72/111/75
f 89/127/99 90/114/91 74/112/84
f 131/129/93 91/130/101 115/131/102
f 94/119/95 76/121/85 93/132/103
f 100/133/87 95/124/97 82/123/96
f 95/124/97 96/134/104 83/135/105
f 83/135/105 97/136/106 84/105/88
f 96/134/104 97/136/106 83/135/105
f 85/106/89 97/136/106 101/137/107
f 86/109/90 85/106/89 87/126/98
f 98/138/108 89/127/99 88/128/100
f 90/114/91 114/139/109 91/130/101
f 99/140/110 94/119/95 105/141/111
f 99/140/110 106/142/112 94/119/95
f 111/143/113 101/137/107 110/144/114
f 87/126/98 101/137/107 111/143/113
f 113/145/115 89/127/99 98/138/108
f 113/145/115 90/114/91 89/127/99
f 123/146/3 100/100/87 1/102/1
f 107/147/116 117/148/117 100/133/87
f 96/134/104 108/149/118 109/6/6
f 118/150/119 97/136/106 109/6/6
f 98/138/108 102/151/120 112/152/121
f 112/152/121 113/145/115 98/138/108
f 130/20/20 105/153/111 104/154/122
f 105/153/111 116/155/123 99/156/110
f 99/156/110 116/155/123 106/157/112
f 119/158/124 120/159/125 110/144/114
f 6/11/11 112/152/121 120/159/125
f 112/152/121 125/160/126 113/145/115
f 125/160/126 114/139/109 113/145/115
f 114/139/109 121/14/14 115/131/102
f 103/161/127 9/162/128 122/163/129
f 11/19/19 105/153/111 130/20/20
f 105/153/111 11/19/19 116/155/123
f 124/4/4 107/147/116 123/3/3
f 119/158/124 16/9/9 120/159/125
f 6/11/11 7/164/24 112/152/121
f 7/164/24 125/160/126 112/152/121
f 18/12/12 121/14/14 125/160/126
f 121/14/14 132/15/15 115/131/102
f 9/162/128 127/16/16 122/163/129
f 116/155/123 11/19/19 20/165/27
f 12/166/30 116/155/123 20/165/27
f 82/167/96 68/168/81 50/101/78
f 10/21/21 127/16/16 126/18/18
f 80/169/94 133/170/130 129/69/60
f 133/171/130 92/172/131 93/132/103
f 80/118/94 92/172/131 133/171/130
f 104/154/122 122/163/129 130/20/20
f 28/173/132 34/53/44 8/174/17
f 48/175/52 34/53/44 28/173/132
f 66/176/92 48/177/52 65/178/69
f 103/161/127 115/179/102 9/162/128
f 129/69/60 128/71/38 57/180/45
f 104/181/122 92/172/131 122/182/129
f 2/2/2 124/4/4 123/3/3
f 124/4/4 2/2/2 3/5/5
f 109/6/6 3/5/5 4/7/7
f 4/7/7 14/183/8 5/184/22
f 6/11/11 25/10/10 7/164/24
f 18/12/12 125/160/126 7/164/24
f 8/17/17 127/16/16 9/162/128
f 22/36/31 2/185/2 1/39/1
f 3/40/5 2/185/2 22/36/31
f 14/23/8 32/42/35 15/24/23
f 15/24/23 16/186/9 5/22/22
f 26/29/26 18/28/12 17/27/25
f 19/33/28 11/32/19 10/45/21
f 21/34/29 36/63/54 12/35/30
f 13/187/63 12/35/30 36/63/54
f 3/40/5 22/36/31 30/38/33
f 14/23/8 3/40/5 32/42/35
f 3/40/5 23/41/34 32/42/35
f 38/44/37 16/186/9 15/24/23
f 25/26/10 16/186/9 38/44/37
f 33/51/43 27/30/13 26/29/26
f 27/30/13 33/51/43 28/188/132
f 132/189/15 27/30/13 28/188/132
f 34/53/44 126/52/18 8/174/17
f 20/31/27 19/33/28 21/34/29
f 32/42/35 23/41/34 31/47/39
f 37/48/40 24/43/36 32/42/35
f 38/44/37 40/49/41 17/27/25
f 40/49/41 41/50/42 26/29/26
f 28/188/132 33/51/43 48/61/52
f 29/37/32 42/190/133 30/38/33
f 42/190/133 44/65/56 30/38/33
f 30/38/33 44/65/56 31/47/39
f 55/60/51 33/51/43 41/50/42
f 35/55/46 49/64/55 21/34/29
f 42/190/133 43/66/57 44/65/56
f 45/56/47 37/48/40 62/67/58
f 63/79/66 46/57/48 45/56/47
f 39/58/49 46/57/48 63/79/66
f 54/59/50 40/49/41 39/58/49
f 129/69/60 58/72/61 35/70/46
f 67/84/71 36/74/54 49/73/55
f 36/74/54 67/84/71 60/75/62
f 43/66/57 50/91/78 61/93/80
f 42/190/133 50/91/78 43/66/57
f 43/66/57 61/93/80 51/77/64
f 51/77/64 62/67/58 31/47/39
f 63/79/66 45/56/47 52/78/65
f 39/58/49 53/80/67 54/59/50
f 66/176/92 57/180/45 56/191/53
f 47/68/59 73/89/76 75/81/68
f 57/180/45 66/176/92 80/169/94
f 129/69/60 77/90/77 58/72/61
f 51/77/64 61/93/80 69/92/79
f 71/96/83 79/86/73 52/78/65
f 53/80/67 72/88/75 73/89/76
f 75/81/68 91/192/101 65/82/69
f 69/125/79 68/193/81 82/123/96
f 83/135/105 70/104/82 69/125/79
f 84/105/88 70/104/82 83/135/105
f 78/103/72 84/105/88 71/107/83
f 86/109/90 79/108/73 71/107/83
f 64/110/74 88/128/100 72/111/75
f 67/194/71 81/122/86 106/142/112
f 60/195/62 67/194/71 106/142/112
f 83/135/105 69/125/79 95/124/97
f 86/109/90 71/107/83 85/106/89
f 64/110/74 87/126/98 88/128/100
f 91/130/101 75/115/68 90/114/91
f 80/118/94 131/117/93 92/172/131
f 94/119/95 106/142/112 81/122/86
f 100/133/87 108/149/118 95/124/97
f 85/106/89 84/105/88 97/136/106
f 87/126/98 85/106/89 101/137/107
f 87/126/98 98/138/108 88/128/100
f 115/131/102 91/130/101 114/139/109
f 105/141/111 94/119/95 93/132/103
f 60/195/62 106/142/112 13/196/63
f 96/134/104 95/124/97 108/149/118
f 110/144/114 101/137/107 97/136/106
f 102/151/120 87/126/98 111/143/113
f 87/126/98 102/151/120 98/138/108
f 90/114/91 113/145/115 114/139/109
f 92/172/131 103/197/127 122/182/129
f 92/172/131 131/117/93 103/197/127
f 104/181/122 105/141/111 93/132/103
f 100/133/87 117/148/117 108/149/118
f 108/149/118 117/148/117 109/6/6
f 109/6/6 97/136/106 96/134/104
f 110/144/114 97/136/106 118/150/119
f 119/158/124 110/144/114 118/150/119
f 120/159/125 111/143/113 110/144/114
f 102/151/120 111/143/113 120/159/125
f 13/198/63 106/157/112 116/155/123
f 107/147/116 124/4/4 117/148/117
f 117/148/117 124/4/4 109/6/6
f 102/151/120 120/159/125 112/152/121
f 114/139/109 125/160/126 121/14/14
f 4/7/7 118/150/119 109/6/6
f 119/158/124 118/150/119 4/7/7
f 119/158/124 4/7/7 5/184/22
f 119/158/124 5/184/22 16/9/9
f 6/11/11 120/159/125 16/9/9
f 116/155/123 12/199/30 13/198/63
f 123/146/3 107/200/116 100/100/87
f 29/201/32 50/101/78 42/202/133
f 50/101/78 100/100/87 82/167/96
f 1/102/1 50/101/78 29/201/32
f 126/52/18 57/54/45 128/46/38
f 129/69/60 57/180/45 80/169/94
f 104/181/122 93/132/103 92/172/131
f 10/21/21 130/20/20 127/16/16
f 130/20/20 122/163/129 127/16/16
f 76/98/85 129/69/60 133/170/130
f 93/132/103 76/121/85 133/171/130
f 132/203/15 8/17/17 9/162/128
f 56/62/53 34/53/44 48/175/52
f 48/177/52 66/176/92 56/191/53
f 8/174/17 132/204/15 28/173/132
f 66/176/92 65/178/69 91/205/101
f 131/117/93 66/116/92 91/206/101
f 131/207/93 115/179/102 103/161/127
f 115/179/102 132/203/15 9/162/128
f 126/52/18 128/46/38 10/45/21
